{
  "accessors": [
    {
      "bufferView": 2,
      "componentType": 5126,
      "count": 1819,
      "max": [
        0.066032499074935913,
        0.030726775527000427,
        -0.077080868184566498
      ],
      "min": [
        -0.065992623567581177,
        -0.13402989506721497,
        -0.19101230800151825
      ],
      "type": "VEC3"
    },
    {
      "bufferView": 2,
      "byteOffset": 21828,
      "componentType": 5126,
      "count": 1819,
      "max": [
        0.99688756465911865,
        0.99566113948822021,
        0.99999153614044189
      ],
      "min": [
        -0.99692618846893311,
        -0.99995481967926025,
        -0.99918782711029053
      ],
      "type": "VEC3"
    },
    {
      "bufferView": 1,
      "componentType": 5126,
      "count": 1819,
      "max": [
        0.99623078107833862,
        1.0000001192092896
      ],
      "min": [
        0,
        0.22416996955871582
      ],
      "type": "VEC2"
    },
    {
      "bufferView": 0,
      "componentType": 5125,
      "count": 9600,
      "max": [
        1818
      ],
      "min": [
        0
      ],
      "type": "SCALAR"
    },
    {
      "bufferView": 2,
      "byteOffset": 43656,
      "componentType": 5126,
      "count": 822,
      "max": [
        0.066901646554470062,
        0.0012690776493400335,
        -0.075669944286346436
      ],
      "min": [
        -0.066901646554470062,
        -0.071775071322917938,
        -0.14411894977092743
      ],
      "type": "VEC3"
    },
    {
      "bufferView": 2,
      "byteOffset": 53520,
      "componentType": 5126,
      "count": 822,
      "max": [
        0.99761247634887695,
        0.99410867691040039,
        0.97703456878662109
      ],
      "min": [
        -0.99761247634887695,
        -0.99331045150756836,
        -0.99240809679031372
      ],
      "type": "VEC3"
    },
    {
      "bufferView": 1,
      "byteOffset": 14552,
      "componentType": 5126,
      "count": 822,
      "max": [
        0.64021122455596924,
        0.78184688091278076
      ],
      "min": [
        0.15565288066864014,
        0.54361271858215332
      ],
      "type": "VEC2"
    },
    {
      "bufferView": 0,
      "byteOffset": 38400,
      "componentType": 5125,
      "count": 3456,
      "max": [
        821
      ],
      "min": [
        0
      ],
      "type": "SCALAR"
    },
    {
      "bufferView": 2,
      "byteOffset": 63384,
      "componentType": 5126,
      "count": 202,
      "max": [
        0.18737000226974487,
        -0.17883649468421936,
        0.068304352462291718
      ],
      "min": [
        -0.0068255364894866943,
        -0.19203472137451172,
        -0.06859733909368515
      ],
      "type": "VEC3"
    },
    {
      "bufferView": 2,
      "byteOffset": 65808,
      "componentType": 5126,
      "count": 202,
      "max": [
        0.97587525844573975,
        0.99998736381530762,
        0.99894756078720093
      ],
      "min": [
        -0.96212315559387207,
        -0.99997735023498535,
        -0.99887764453887939
      ],
      "type": "VEC3"
    },
    {
      "bufferView": 1,
      "byteOffset": 21128,
      "componentType": 5126,
      "count": 202,
      "max": [
        0.91261374950408936,
        0.6373482346534729
      ],
      "min": [
        0.21045929193496704,
        0
      ],
      "type": "VEC2"
    },
    {
      "bufferView": 0,
      "byteOffset": 52224,
      "componentType": 5125,
      "count": 528,
      "max": [
        201
      ],
      "min": [
        0
      ],
      "type": "SCALAR"
    },
    {
      "bufferView": 2,
      "byteOffset": 68232,
      "componentType": 5126,
      "count": 628,
      "max": [
        0.045994054526090622,
        -0.12876191735267639,
        -0.10170760005712509
      ],
      "min": [
        -0.045994054526090622,
        -0.14792990684509277,
        -0.13411541283130646
      ],
      "type": "VEC3"
    },
    {
      "bufferView": 2,
      "byteOffset": 75768,
      "componentType": 5126,
      "count": 628,
      "max": [
        0.99781423807144165,
        0.99722951650619507,
        0.99049359560012817
      ],
      "min": [
        -0.99781423807144165,
        -0.99995660781860352,
        -0.99921691417694092
      ],
      "type": "VEC3"
    },
    {
      "bufferView": 1,
      "byteOffset": 22744,
      "componentType": 5126,
      "count": 628,
      "max": [
        0.96019315719604492,
        0.93155288696289062
      ],
      "min": [
        0,
        0
      ],
      "type": "VEC2"
    },
    {
      "bufferView": 0,
      "byteOffset": 54336,
      "componentType": 5125,
      "count": 2688,
      "max": [
        627
      ],
      "min": [
        0
      ],
      "type": "SCALAR"
    },
    {
      "bufferView": 2,
      "byteOffset": 83304,
      "componentType": 5126,
      "count": 1796,
      "max": [
        0.060645867139101028,
        0.10009990632534027,
        -0.060636084526777267
      ],
      "min": [
        -0.060645870864391327,
        -0.01601838693022728,
        -0.18957024812698364
      ],
      "type": "VEC3"
    },
    {
      "bufferView": 2,
      "byteOffset": 104856,
      "componentType": 5126,
      "count": 1796,
      "max": [
        0.99921333789825439,
        0.99991714954376221,
        0.99855804443359375
      ],
      "min": [
        -0.99921333789825439,
        -0.99998140335083008,
        -0.99999344348907471
      ],
      "type": "VEC3"
    },
    {
      "bufferView": 1,
      "byteOffset": 27768,
      "componentType": 5126,
      "count": 1796,
      "max": [
        0.99567484855651855,
        0.98451352119445801
      ],
      "min": [
        0.21788483858108521,
        0
      ],
      "type": "VEC2"
    },
    {
      "bufferView": 0,
      "byteOffset": 65088,
      "componentType": 5125,
      "count": 9600,
      "max": [
        1795
      ],
      "min": [
        0
      ],
      "type": "SCALAR"
    },
    {
      "bufferView": 2,
      "byteOffset": 126408,
      "componentType": 5126,
      "count": 710,
      "max": [
        0.11917261779308319,
        0.14137625694274902,
        -0.11961621046066284
      ],
      "min": [
        -0.11917261779308319,
        0.067156560719013214,
        -0.1410033106803894
      ],
      "type": "VEC3"
    },
    {
      "bufferView": 2,
      "byteOffset": 134928,
      "componentType": 5126,
      "count": 710,
      "max": [
        0.99951255321502686,
        0.99874818325042725,
        0.99884766340255737
      ],
      "min": [
        -0.99951255321502686,
        -0.99127507209777832,
        -0.99884766340255737
      ],
      "type": "VEC3"
    },
    {
      "bufferView": 1,
      "byteOffset": 42136,
      "componentType": 5126,
      "count": 710,
      "max": [
        0.42730960249900818,
        0.75356537103652954
      ],
      "min": [
        0.15565288066864014,
        0.42067694664001465
      ],
      "type": "VEC2"
    },
    {
      "bufferView": 0,
      "byteOffset": 103488,
      "componentType": 5125,
      "count": 3168,
      "max": [
        709
      ],
      "min": [
        0
      ],
      "type": "SCALAR"
    }
  ],
  "asset": {
    "extras": {
      "author": "W3DGE (https://sketchfab.com/WEDGE3D)",
      "license": "CC-BY-4.0 (http://creativecommons.org/licenses/by/4.0/)",
      "source": "https://sketchfab.com/3d-models/pikachu-free-pokemon-c904ee98d1594b408c880d9c59b14bfe",
      "title": "Pikachu Free Pokemon"
    },
    "generator": "Sketchfab-10.39.2",
    "version": "2.0"
  },
  "bufferViews": [
    {
      "buffer": 0,
      "byteLength": 116160,
      "byteOffset": 0,
      "name": "floatBufferViews",
      "target": 34963
    },
    {
      "buffer": 0,
      "byteLength": 47816,
      "byteOffset": 116160,
      "byteStride": 8,
      "name": "floatBufferViews",
      "target": 34962
    },
    {
      "buffer": 0,
      "byteLength": 143448,
      "byteOffset": 163976,
      "byteStride": 12,
      "name": "floatBufferViews",
      "target": 34962
    }
  ],
  "buffers": [
    {
      "byteLength": 307424,
      "uri": "scene.bin"
    }
  ],
  "images": [
    {
      "uri": "textures/material_0_baseColor.png"
    }
  ],
  "materials": [
    {
      "doubleSided": true,
      "name": "material_0",
      "pbrMetallicRoughness": {
        "baseColorFactor": [
          1,
          1,
          1,
          1
        ],
        "baseColorTexture": {
          "index": 0,
          "texCoord": 0
        },
        "metallicFactor": 0,
        "roughnessFactor": 0.59999999999999998
      }
    },
    {
      "doubleSided": true,
      "emissiveFactor": [
        0,
        0,
        0
      ],
      "name": "Pikachu_Mat_Final",
      "pbrMetallicRoughness": {
        "baseColorFactor": [
          1,
          1,
          1,
          1
        ],
        "baseColorTexture": {
          "index": 0,
          "texCoord": 0
        },
        "metallicFactor": 0,
        "roughnessFactor": 0.5
      }
    }
  ],
  "meshes": [
    {
      "primitives": [
        {
          "attributes": {
            "NORMAL": 1,
            "POSITION": 0,
            "TEXCOORD_0": 2
          },
          "indices": 3,
          "material": 1,
          "mode": 4
        }
      ]
    },
    {
      "primitives": [
        {
          "attributes": {
            "NORMAL": 5,
            "POSITION": 4,
            "TEXCOORD_0": 6
          },
          "indices": 7,
          "material": 1,
          "mode": 4
        }
      ]
    },
    {
      "primitives": [
        {
          "attributes": {
            "NORMAL": 9,
            "POSITION": 8,
            "TEXCOORD_0": 10
          },
          "indices": 11,
          "material": 0,
          "mode": 4
        }
      ]
    },
    {
      "primitives": [
        {
          "attributes": {
            "NORMAL": 13,
            "POSITION": 12,
            "TEXCOORD_0": 14
          },
          "indices": 15,
          "material": 1,
          "mode": 4
        }
      ]
    },
    {
      "primitives": [
        {
          "attributes": {
            "NORMAL": 17,
            "POSITION": 16,
            "TEXCOORD_0": 18
          },
          "indices": 19,
          "material": 1,
          "mode": 4
        }
      ]
    },
    {
      "primitives": [
        {
          "attributes": {
            "NORMAL": 21,
            "POSITION": 20,
            "TEXCOORD_0": 22
          },
          "indices": 23,
          "material": 1,
          "mode": 4
        }
      ]
    }
  ],
  "nodes": [
    {
      "children": [
        1
      ],
      "name": "RootNode (gltf orientation matrix)",
      "rotation": [
        -0.70710678118654746,
        -0,
        -0,
        0.70710678118654757
      ]
    },
    {
      "children": [
        2
      ],
      "name": "RootNode (model correction matrix)"
    },
    {
      "children": [
        3
      ],
      "name": "root"
    },
    {
      "children": [
        4,
        6,
        8,
        10,
        12,
        14
      ],
      "matrix": [
        1,
        0,
        0,
        0,
        0,
        2.2204460492503131e-16,
        1,
        0,
        0,
        -1,
        2.2204460492503131e-16,
        0,
        0,
        0,
        0,
        1
      ],
      "name": "GLTF_SceneRootNode"
    },
    {
      "children": [
        5
      ],
      "matrix": [
        1.0500762462615967,
        0,
        0,
        0,
        0,
        1.0500762462615967,
        0,
        0,
        0,
        0,
        1.0500762462615967,
        0,
        0,
        0,
        0,
        1
      ],
      "name": "Body_0"
    },
    {
      "mesh": 0,
      "name": ""
    },
    {
      "children": [
        7
      ],
      "matrix": [
        1.0500762462615967,
        0,
        0,
        0,
        0,
        1.0500762462615967,
        0,
        0,
        0,
        0,
        1.0500762462615967,
        0,
        0,
        0,
        0,
        1
      ],
      "name": "Arm_1"
    },
    {
      "mesh": 1,
      "name": ""
    },
    {
      "children": [
        9
      ],
      "matrix": [
        1.0500762462615967,
        0,
        0,
        0,
        0,
        0,
        1.0500762462615967,
        0,
        0,
        -1.0500762462615967,
        0,
        0,
        0,
        0,
        0,
        1
      ],
      "name": "Tail_2"
    },
    {
      "mesh": 2,
      "name": ""
    },
    {
      "children": [
        11
      ],
      "matrix": [
        1.0500762462615967,
        0,
        0,
        0,
        0,
        1.0500762462615967,
        0,
        0,
        0,
        0,
        1.0500762462615967,
        0,
        0,
        0,
        0,
        1
      ],
      "name": "Foot R_3"
    },
    {
      "mesh": 3,
      "name": ""
    },
    {
      "children": [
        13
      ],
      "matrix": [
        1.0500762462615967,
        0,
        0,
        0,
        0,
        1.0500762462615967,
        0,
        0,
        0,
        0,
        1.0500762462615967,
        0,
        0,
        0,
        0,
        1
      ],
      "name": "Head_4"
    },
    {
      "mesh": 4,
      "name": ""
    },
    {
      "children": [
        15
      ],
      "matrix": [
        1.0500762462615967,
        0,
        0,
        0,
        0,
        1.0500762462615967,
        0,
        0,
        0,
        0,
        1.0500762462615967,
        0,
        0,
        0,
        0,
        1
      ],
      "name": "Ear R 3_5"
    },
    {
      "mesh": 5,
      "name": ""
    }
  ],
  "samplers": [
    {
      "magFilter": 9729,
      "minFilter": 9987,
      "wrapS": 10497,
      "wrapT": 10497
    }
  ],
  "scene": 0,
  "scenes": [
    {
      "name": "OSG_Scene",
      "nodes": [
        0
      ]
    }
  ],
  "textures": [
    {
      "sampler": 0,
      "source": 0
    }
  ]
}

