{
  "accessors": [
    {
      "bufferView": 2,
      "componentType": 5126,
      "count": 2013,
      "max": [
        36.219932556152344,
        108.26268005371094,
        64.143974304199219
      ],
      "min": [
        -36.21990966796875,
        0,
        -36.219902038574219
      ],
      "type": "VEC3"
    },
    {
      "bufferView": 2,
      "byteOffset": 24156,
      "componentType": 5126,
      "count": 2013,
      "max": [
        1,
        1,
        1
      ],
      "min": [
        -0.99893772602081299,
        -1,
        -0.99970746040344238
      ],
      "type": "VEC3"
    },
    {
      "bufferView": 3,
      "componentType": 5126,
      "count": 2013,
      "max": [
        0.99988532066345215,
        0.99927711486816406,
        0.99823802709579468,
        1
      ],
      "min": [
        -0.99996155500411987,
        -0.99971908330917358,
        -0.99897491931915283,
        -1
      ],
      "type": "VEC4"
    },
    {
      "bufferView": 1,
      "componentType": 5126,
      "count": 2013,
      "max": [
        0.99849551916122437,
        0.98559534549713135
      ],
      "min": [
        0.0061911344528198242,
        0.012414855882525444
      ],
      "type": "VEC2"
    },
    {
      "bufferView": 0,
      "componentType": 5125,
      "count": 10044,
      "max": [
        2012
      ],
      "min": [
        0
      ],
      "type": "SCALAR"
    }
  ],
  "asset": {
    "extras": {
      "author": "hatsaru (https://sketchfab.com/hatsaru)",
      "license": "CC-BY-NC-ND-4.0 (http://creativecommons.org/licenses/by-nc-nd/4.0/)",
      "source": "https://sketchfab.com/models/f3adb211801e4a41a2dc0046b2db9728",
      "title": "Pokémon fanart - ekans"
    },
    "generator": "Sketchfab-3.19.6",
    "version": "2.0"
  },
  "bufferViews": [
    {
      "buffer": 0,
      "byteLength": 40176,
      "byteOffset": 0,
      "name": "floatBufferViews",
      "target": 34963
    },
    {
      "buffer": 0,
      "byteLength": 16104,
      "byteOffset": 40176,
      "byteStride": 8,
      "name": "floatBufferViews",
      "target": 34962
    },
    {
      "buffer": 0,
      "byteLength": 48312,
      "byteOffset": 56280,
      "byteStride": 12,
      "name": "floatBufferViews",
      "target": 34962
    },
    {
      "buffer": 0,
      "byteLength": 32208,
      "byteOffset": 104592,
      "byteStride": 16,
      "name": "floatBufferViews",
      "target": 34962
    }
  ],
  "buffers": [
    {
      "byteLength": 136800,
      "uri": "scene.bin"
    }
  ],
  "images": [
    {
      "uri": "textures/ekans_material_baseColor.png"
    },
    {
      "uri": "textures/ekans_material_normal.png"
    },
    {
      "uri": "textures/ekans_material_metallicRoughness.png"
    }
  ],
  "materials": [
    {
      "doubleSided": true,
      "name": "ekans_material",
      "normalTexture": {
        "index": 1,
        "scale": 1,
        "texCoord": 0
      },
      "occlusionTexture": {
        "index": 2,
        "strength": 1,
        "texCoord": 0
      },
      "pbrMetallicRoughness": {
        "baseColorFactor": [
          1,
          1,
          1,
          1
        ],
        "baseColorTexture": {
          "index": 0,
          "texCoord": 0
        },
        "metallicFactor": 0,
        "metallicRoughnessTexture": {
          "index": 2,
          "texCoord": 0
        },
        "roughnessFactor": 0.72999999999999998
      }
    }
  ],
  "meshes": [
    {
      "name": "Ekans_ekans_material_0",
      "primitives": [
        {
          "attributes": {
            "NORMAL": 1,
            "POSITION": 0,
            "TANGENT": 2,
            "TEXCOORD_0": 3
          },
          "indices": 4,
          "material": 0,
          "mode": 4
        }
      ]
    }
  ],
  "nodes": [
    {
      "children": [
        1
      ],
      "name": "RootNode (gltf orientation matrix)",
      "rotation": [
        -0.70710678118654746,
        -0,
        -0,
        0.70710678118654757
      ]
    },
    {
      "children": [
        2
      ],
      "matrix": [
        -0.99998974800109863,
        -0.0045289071276783943,
        0,
        0,
        0.0045289071276783943,
        -0.99998974800109863,
        0,
        0,
        0,
        0,
        1,
        0,
        0.063286006450653076,
        -27.923856735229492,
        0,
        1
      ],
      "name": "RootNode (model correction matrix)"
    },
    {
      "children": [
        3
      ],
      "matrix": [
        1,
        0,
        0,
        0,
        0,
        0,
        1,
        0,
        0,
        -1,
        0,
        0,
        0,
        0,
        0,
        1
      ],
      "name": "bcdd1e10613b481fb77ea7f9b0e255fa.fbx"
    },
    {
      "children": [
        4
      ],
      "name": "RootNode"
    },
    {
      "children": [
        5
      ],
      "name": "Ekans"
    },
    {
      "mesh": 0,
      "name": "Ekans_ekans_material_0"
    }
  ],
  "samplers": [
    {
      "magFilter": 9729,
      "minFilter": 9987,
      "wrapS": 10497,
      "wrapT": 10497
    }
  ],
  "scene": 0,
  "scenes": [
    {
      "name": "OSG_Scene",
      "nodes": [
        0
      ]
    }
  ],
  "textures": [
    {
      "sampler": 0,
      "source": 0
    },
    {
      "sampler": 0,
      "source": 1
    },
    {
      "sampler": 0,
      "source": 2
    }
  ]
}

